Hanif_Shallow_7_5_grf.mot
version=1
nRows=21
nColumns=19
inDegrees=yes
endheader
time	right_ground_force_vx	right_ground_force_vy	right_ground_force_vz	right_ground_force_px	right_ground_force_py	right_ground_force_pz	right_ground_torque_x	right_ground_torque_y	right_ground_torque_z	left_ground_force_vx	left_ground_force_vy	left_ground_force_vz	left_ground_force_px	left_ground_force_py	left_ground_force_pz	left_ground_torque_x	left_ground_torque_y	left_ground_torque_z
4.390000	8.255050	327.138000	72.270200	0.175673	0.000000	-1.445490	-19.607500	9.727410	-6.307940	-6.830640	328.742000	-73.950200	0.193372	0.000000	-0.973136	23.177500	-5.835640	-0.868582
4.395000	8.113630	327.013000	71.890000	0.175318	0.000000	-1.444860	-19.807500	9.801770	-6.415780	-6.691700	327.519000	-74.084500	0.192653	0.000000	-0.973539	23.221600	-5.880290	-1.092410
4.400000	8.427130	325.664000	71.312800	0.174960	0.000000	-1.445190	-19.608200	9.848650	-6.501300	-6.543070	326.820000	-73.994300	0.192794	0.000000	-0.973790	23.253600	-5.959960	-1.021410
4.405000	8.575610	324.784000	70.792100	0.174056	0.000000	-1.446750	-19.049700	9.660340	-6.831610	-6.377300	327.062000	-73.776500	0.192319	0.000000	-0.973118	23.047900	-6.026430	-1.179660
4.410000	9.192620	324.271000	70.396800	0.173348	0.000000	-1.446060	-19.228100	9.766750	-7.048940	-6.913010	325.200000	-73.497600	0.191558	0.000000	-0.974025	23.224700	-6.121820	-1.391150
4.415000	9.553440	323.066000	70.442500	0.173407	0.000000	-1.447090	-18.811400	9.852240	-6.974120	-6.762170	324.190000	-73.046600	0.191098	0.000000	-0.973359	22.931600	-6.027260	-1.567110
4.420000	9.262750	323.094000	69.890400	0.172965	0.000000	-1.446830	-18.906900	9.804110	-7.141410	-6.406590	323.846000	-72.561600	0.191258	0.000000	-0.972669	22.678100	-6.052360	-1.517090
4.425000	9.428550	321.493000	69.721100	0.172236	0.000000	-1.446970	-18.762200	9.893310	-7.320830	-6.534840	322.070000	-72.104100	0.190809	0.000000	-0.973332	22.772900	-6.175430	-1.623230
4.430000	9.370190	322.371000	69.584100	0.171844	0.000000	-1.447600	-18.608400	9.983670	-7.462680	-6.147850	323.403000	-72.341500	0.191077	0.000000	-0.972385	22.551600	-6.127590	-1.564150
4.435000	9.690530	322.539000	69.393300	0.171899	0.000000	-1.447040	-18.795300	9.855680	-7.485560	-6.455950	323.188000	-71.945300	0.191145	0.000000	-0.973349	22.855900	-6.183100	-1.526180
4.440000	9.499860	324.201000	69.425900	0.171782	0.000000	-1.447120	-18.869100	10.032600	-7.539040	-6.495010	324.655000	-71.681400	0.190637	0.000000	-0.972556	22.701700	-6.213360	-1.716280
4.445000	10.006900	323.266000	69.372200	0.171527	0.000000	-1.447510	-18.675200	10.060800	-7.594890	-6.516960	323.052000	-72.032600	0.190804	0.000000	-0.972635	22.616500	-6.189400	-1.637140
4.450000	9.657940	323.398000	68.507300	0.170851	0.000000	-1.447710	-18.628100	10.030000	-7.844280	-6.754080	321.194000	-71.416000	0.190561	0.000000	-0.972609	22.483500	-6.170820	-1.704920
4.455000	9.070410	321.888000	68.489100	0.170612	0.000000	-1.448500	-18.298600	9.974610	-7.876690	-6.418780	320.851000	-71.720500	0.190166	0.000000	-0.972442	22.398700	-6.156690	-1.836910
4.460000	8.939870	321.325000	68.111800	0.170425	0.000000	-1.448510	-18.265200	9.952320	-7.929390	-6.860330	319.609000	-70.851800	0.189299	0.000000	-0.971585	22.046700	-6.168760	-2.116560
4.465000	9.010300	320.460000	68.003500	0.170128	0.000000	-1.448860	-18.102000	9.933430	-8.005010	-6.615200	319.669000	-70.555900	0.189611	0.000000	-0.971897	22.145400	-6.127450	-2.029860
4.470000	8.425130	319.597000	67.544500	0.169119	0.000000	-1.449150	-17.976300	9.820810	-8.336080	-6.345310	317.092000	-70.010600	0.188689	0.000000	-0.971422	21.812700	-6.191200	-2.298650
4.475000	8.633800	320.447000	67.312300	0.169295	0.000000	-1.448990	-18.076000	9.761080	-8.326440	-6.249360	313.344000	-69.780100	0.188007	0.000000	-0.971852	21.690700	-6.240250	-2.458900
4.480000	8.625130	319.767000	67.135700	0.169112	0.000000	-1.449490	-17.875100	9.807670	-8.355550	-6.102710	314.287000	-69.806100	0.187928	0.000000	-0.971177	21.539500	-6.220030	-2.507270
4.485000	9.039650	318.650000	67.802000	0.168215	0.000000	-1.449440	-17.824700	9.689140	-8.633990	-5.586420	313.098000	-69.552700	0.187666	0.000000	-0.971512	21.554600	-6.275930	-2.573180
4.490000	9.666760	319.497000	67.746900	0.168119	0.000000	-1.449900	-17.707000	9.871240	-8.665880	-5.859890	313.683000	-69.226800	0.187970	0.000000	-0.971264	21.523300	-6.332560	-2.471460
